#!OML:ASF E:\acrobat2\Project_11_07_03\Capture day 1\Session 1\Acrobat.ASF
:FULLY-SPECIFIED
:DEGREES
869
root 9.8315 15.1996 -11.9432 189.22 -9.20338 -163.721
lowerback 9.48441 6.85771 -8.09044
upperback 3.27572 7.09936 -7.7214
thorax -1.88296 3.10411 -4.38146
lowerneck -3.92294 -5.01287 -1.69456
upperneck -11.2973 -7.25293 2.6859
head -2.76089 -3.9434 1.24152
rclavicle -5.40694e-014 1.30403e-013
rhumerus -13.4535 21.3658 -101.535
rradius 25.3965
rwrist 13.7247
rhand -7.70476 321.805
rfingers 7.12502
rthumb 18.1929 -427.365
lclavicle -5.40694e-014 1.30403e-013
lhumerus 1.7304 -65.8961 66.985
lradius 28.208
lwrist 8.12179
lhand 18.4574 -3.42779
lfingers 7.12502
lthumb 43.0954 20.7843
rfemur -16.4126 -18.1331 -9.63152
rtibia 35.5723
rfoot 7.39972 -10.4249
rtoes 0.98342
lfemur -12.8487 -11.4934 43.003
ltibia 6.02722
lfoot -21.4789 -10.064
ltoes 53.7693
870
root 9.78416 15.2298 -11.9392 189.388 -8.71514 -164.39
lowerback 9.56219 6.8243 -8.50733
upperback 3.30802 6.95938 -7.84955
thorax -1.92915 3.01423 -4.28521
lowerneck -4.00706 -4.96791 -1.57774
upperneck -11.5087 -7.23151 2.57185
head -2.82674 -3.94579 1.18998
rclavicle 6.04305e-014 4.77083e-014
rhumerus -13.3414 20.3104 -101.15
rradius 25.0075
rwrist 13.5604
rhand -6.92912 321.597
rfingers 7.12502
rthumb 18.939 -427.501
lclavicle 6.04305e-014 4.77083e-014
lhumerus 1.22175 -66.1331 67.3877
lradius 28.2038
lwrist 8.57802
lhand 18.416 -2.89416
lfingers 7.12502
lthumb 43.0567 21.3317
rfemur -18.6652 -21.0154 -9.61157
rtibia 39.4063
rfoot 7.54035 -7.6224
rtoes -0.649309
lfemur -12.5714 -11.2591 41.9602
ltibia 6.13802
lfoot -21.5149 -9.84452
ltoes 53.3777
871
root 9.74287 15.2552 -11.9323 189.579 -8.08573 -165.024
lowerback 9.43685 6.77707 -9.00383
upperback 3.37083 6.84049 -7.88513
thorax -1.8509 2.93542 -4.02607
lowerneck -3.97733 -4.83694 -1.58349
upperneck -11.7717 -7.0912 2.45733
head -2.92906 -3.88307 1.16353
rclavicle 3.49861e-014 -1.145e-013
rhumerus -13.0491 19.8259 -100.628
rradius 24.553
rwrist 13.1877
rhand -5.86733 321.398
rfingers 7.12502
rthumb 19.9599 -427.597
lclavicle 3.49861e-014 -1.145e-013
lhumerus 0.782262 -66.0117 67.8964
lradius 28.0566
lwrist 8.85264
lhand 18.3645 -2.54153
lfingers 7.12502
lthumb 43.0086 21.7014
rfemur -21.1916 -23.5815 -9.27335
rtibia 43.3462
rfoot 7.16012 -5.18648
rtoes -1.93698
lfemur -12.1806 -11.0428 40.9516
ltibia 6.20711
lfoot -21.6346 -9.85416
ltoes 53.2181
872
root 9.70814 15.2789 -11.9267 189.727 -7.28009 -165.522
lowerback 9.63917 6.78265 -9.37981
upperback 3.15574 6.74265 -7.93212
thorax -2.22848 2.8893 -3.90143
lowerneck -3.67516 -4.70325 -1.61273
upperneck -11.998 -6.92276 2.4232
head -3.06505 -3.79931 1.17463
rclavicle 1.04958e-013 2.8625e-014
rhumerus -13.1841 19.0434 -100.366
rradius 24.1698
rwrist 13.0463
rhand -5.85147 321.218
rfingers 7.12502
rthumb 19.9751 -427.775
lclavicle 1.04958e-013 2.8625e-014
lhumerus -0.656281 -65.9378 69.1973
lradius 27.8101
lwrist 8.81099
lhand 17.4196 -2.97552
lfingers 7.12502
lthumb 42.1241 21.5728
rfemur -23.9109 -25.735 -8.48204
rtibia 47.2483
rfoot 6.55845 -3.03295
rtoes -3.85684
lfemur -11.5702 -10.9238 40.0733
ltibia 6.17046
lfoot -21.9157 -9.78577
ltoes 53.0463
873
root 9.67722 15.2978 -11.927 189.815 -6.49794 -166.095
lowerback 9.62664 6.81759 -9.68903
upperback 3.17519 6.72809 -7.99616
thorax -2.2305 2.86667 -3.80161
lowerneck -3.67755 -4.66714 -1.56502
upperneck -12.2725 -6.91157 2.37911
head -3.1631 -3.8077 1.16175
rclavicle 5.56597e-014 2.8625e-013
rhumerus -13.0477 17.7526 -99.9565
rradius 23.9385
rwrist 13.3178
rhand -5.83234 321.009
rfingers 7.12502
rthumb 19.9935 -427.983
lclavicle 5.56597e-014 2.8625e-013
lhumerus -1.02199 -66.2185 69.5219
lradius 27.5987
lwrist 9.05772
lhand 16.1032 -3.36574
lfingers 7.12502
lthumb 40.8891 21.5858
rfemur -26.5332 -27.7207 -7.61343
rtibia 50.9804
rfoot 5.91565 -1.36787
rtoes -5.83104
lfemur -10.8767 -11.0827 39.1065
ltibia 5.98711
lfoot -22.4759 -9.48936
ltoes 52.6601
874
root 9.64603 15.3097 -11.932 189.895 -6.03008 -166.844
lowerback 9.62928 6.75355 -9.92841
upperback 3.27252 6.58365 -8.11103
thorax -2.1434 2.77255 -3.77175
lowerneck -3.88209 -4.6443 -1.45091
upperneck -12.3845 -6.91407 2.32325
head -3.17072 -3.82381 1.12142
rclavicle -3.33958e-014 -1.24042e-013
rhumerus -12.846 16.7975 -99.509
rradius 23.8772
rwrist 13.2422
rhand -5.35916 320.645
rfingers 7.12502
rthumb 20.4483 -428.298
lclavicle -3.33958e-014 -1.24042e-013
lhumerus -1.03537 -66.4698 69.5808
lradius 27.3727
lwrist 9.15107
lhand 15.3741 -3.28555
lfingers 7.12502
lthumb 40.2037 21.8787
rfemur -28.8821 -29.9205 -6.89612
rtibia 54.6375
rfoot 5.25576 0.062255
rtoes -6.53028
lfemur -10.4901 -11.336 37.9749
ltibia 5.90016
lfoot -22.866 -9.37835
ltoes 52.4066
875
root 9.62807 15.3163 -11.9203 190.213 -5.79909 -167.688
lowerback 9.69286 6.52569 -10.3085
upperback 3.27862 6.20595 -8.16749
thorax -2.20476 2.5732 -3.58585
lowerneck -3.97041 -4.55731 -1.38843
upperneck -12.6858 -6.8601 2.12344
head -3.27024 -3.81061 1.05347
rclavicle 6.04305e-014 1.30403e-013
rhumerus -12.6143 16.5412 -99.0184
rradius 23.8835
rwrist 12.7407
rhand -5.24637 320.363
rfingers 7.12502
rthumb 20.5567 -428.569
lclavicle 6.04305e-014 1.30403e-013
lhumerus -1.41338 -65.9748 70.1294
lradius 27.036
lwrist 8.8555
lhand 14.8764 -3.18283
lfingers 7.12502
lthumb 39.7353 22.1225
rfemur -31.617 -32.194 -5.93915
rtibia 58.4299
rfoot 4.45214 1.36817
rtoes -7.25035
lfemur -10.7504 -11.1249 36.9415
ltibia 6.19278
lfoot -22.7939 -9.50276
ltoes 52.5339
